<mxfile host="app.diagrams.net" modified="2023-03-29T09:41:26.211Z" agent="Mozilla/5.0 (Windows NT 10.0; Win64; x64) AppleWebKit/537.36 (KHTML, like Gecko) Chrome/96.0.4664.45 Safari/537.36" etag="9NYMfk-eR_2eDv3QWLRq" version="21.1.1" type="github" pages="3">
  <diagram name="第 1 页" id="uTNQZCrpNhPznFiIJOcQ">
    <mxGraphModel dx="794" dy="516" grid="0" gridSize="10" guides="1" tooltips="1" connect="1" arrows="1" fold="1" page="1" pageScale="1" pageWidth="1200" pageHeight="1920" math="0" shadow="0">
      <root>
        <mxCell id="0" />
        <mxCell id="1" parent="0" />
        <mxCell id="6p5Oqk4yI4i8pk-0OoKq-4" value="" style="rounded=0;whiteSpace=wrap;html=1;fillColor=#cce5ff;strokeColor=#36393d;" parent="1" vertex="1">
          <mxGeometry x="220" y="340" width="560" height="220" as="geometry" />
        </mxCell>
        <mxCell id="6p5Oqk4yI4i8pk-0OoKq-3" value="安装包水印检查" style="rounded=0;whiteSpace=wrap;html=1;fillColor=#d0cee2;strokeColor=#56517e;" parent="1" vertex="1">
          <mxGeometry x="660" y="360" width="110" height="180" as="geometry" />
        </mxCell>
        <mxCell id="6p5Oqk4yI4i8pk-0OoKq-6" value="内外网智能识别" style="rounded=0;whiteSpace=wrap;html=1;fillColor=#e1d5e7;strokeColor=#9673a6;" parent="1" vertex="1">
          <mxGeometry x="242.5" y="500" width="410" height="40" as="geometry" />
        </mxCell>
        <mxCell id="6p5Oqk4yI4i8pk-0OoKq-8" value="&lt;span style=&quot;font-size:12.0pt;font-family:仿宋;&#xa;mso-bidi-font-family:仿宋;mso-font-kerning:1.0pt;mso-ansi-language:EN-US;&#xa;mso-fareast-language:ZH-CN;mso-bidi-language:AR-SA&quot;&gt;内外网环境自适应终端&lt;/span&gt;" style="text;whiteSpace=wrap;html=1;" parent="1" vertex="1">
          <mxGeometry x="415" y="310" width="170" height="30" as="geometry" />
        </mxCell>
        <mxCell id="6p5Oqk4yI4i8pk-0OoKq-9" value="操作系统" style="rounded=0;whiteSpace=wrap;html=1;fillColor=#f8cecc;strokeColor=#b85450;" parent="1" vertex="1">
          <mxGeometry x="220" y="570" width="560" height="30" as="geometry" />
        </mxCell>
        <mxCell id="wP3Pd6ixgc_Sjc1uyxyP-2" value="内网策略沙箱" style="rounded=0;whiteSpace=wrap;html=1;fillColor=#dae8fc;strokeColor=#6c8ebf;" parent="1" vertex="1">
          <mxGeometry x="242.5" y="460" width="200" height="30" as="geometry" />
        </mxCell>
        <mxCell id="wP3Pd6ixgc_Sjc1uyxyP-3" value="外网策略沙箱" style="rounded=0;whiteSpace=wrap;html=1;aspect=fixed;fillColor=#dae8fc;strokeColor=#6c8ebf;" parent="1" vertex="1">
          <mxGeometry x="452.5" y="460" width="200" height="30" as="geometry" />
        </mxCell>
        <mxCell id="wP3Pd6ixgc_Sjc1uyxyP-5" value="" style="rounded=0;whiteSpace=wrap;html=1;fillColor=#bac8d3;strokeColor=#23445d;" parent="1" vertex="1">
          <mxGeometry x="242.5" y="360" width="410" height="85" as="geometry" />
        </mxCell>
        <mxCell id="wP3Pd6ixgc_Sjc1uyxyP-7" value="DNS 黑名单" style="rounded=1;whiteSpace=wrap;html=1;fillColor=#b0e3e6;strokeColor=#0e8088;" parent="1" vertex="1">
          <mxGeometry x="260" y="405" width="170" height="33" as="geometry" />
        </mxCell>
        <mxCell id="wP3Pd6ixgc_Sjc1uyxyP-9" value="伪造DNS响应" style="rounded=1;whiteSpace=wrap;html=1;fillColor=#b0e3e6;strokeColor=#0e8088;" parent="1" vertex="1">
          <mxGeometry x="260" y="367" width="170" height="33" as="geometry" />
        </mxCell>
        <mxCell id="wP3Pd6ixgc_Sjc1uyxyP-10" value="DNS响应" style="rounded=1;whiteSpace=wrap;html=1;fillColor=#d5e8d4;strokeColor=#82b366;" parent="1" vertex="1">
          <mxGeometry x="467.5" y="367" width="170" height="33" as="geometry" />
        </mxCell>
        <mxCell id="wP3Pd6ixgc_Sjc1uyxyP-11" value="DNS 白名单" style="rounded=1;whiteSpace=wrap;html=1;fillColor=#d5e8d4;strokeColor=#82b366;" parent="1" vertex="1">
          <mxGeometry x="467.5" y="405" width="170" height="33" as="geometry" />
        </mxCell>
      </root>
    </mxGraphModel>
  </diagram>
  <diagram id="b3HzxBoBl5qAjj-MaAnx" name="第 2 页">
    <mxGraphModel dx="794" dy="516" grid="0" gridSize="10" guides="1" tooltips="1" connect="1" arrows="1" fold="1" page="1" pageScale="1" pageWidth="1200" pageHeight="1920" math="0" shadow="0">
      <root>
        <mxCell id="0" />
        <mxCell id="1" parent="0" />
        <mxCell id="4JZfmhiXD-vPmhhkhMX5-1" value="" style="fontColor=#0066CC;verticalAlign=top;verticalLabelPosition=bottom;labelPosition=center;align=center;html=1;outlineConnect=0;fillColor=#CCCCCC;strokeColor=#6881B3;gradientColor=none;gradientDirection=north;strokeWidth=2;shape=mxgraph.networks.desktop_pc;" vertex="1" parent="1">
          <mxGeometry x="470" y="170" width="50" height="80" as="geometry" />
        </mxCell>
        <mxCell id="4JZfmhiXD-vPmhhkhMX5-10" style="edgeStyle=orthogonalEdgeStyle;rounded=0;orthogonalLoop=1;jettySize=auto;html=1;exitX=1;exitY=0.5;exitDx=0;exitDy=0;exitPerimeter=0;entryX=0;entryY=0.5;entryDx=0;entryDy=0;entryPerimeter=0;" edge="1" parent="1" source="4JZfmhiXD-vPmhhkhMX5-4" target="4JZfmhiXD-vPmhhkhMX5-1">
          <mxGeometry relative="1" as="geometry" />
        </mxCell>
        <mxCell id="4JZfmhiXD-vPmhhkhMX5-4" value="" style="fontColor=#0066CC;verticalAlign=top;verticalLabelPosition=bottom;labelPosition=center;align=center;html=1;outlineConnect=0;fillColor=#CCCCCC;strokeColor=#6881B3;gradientColor=none;gradientDirection=north;strokeWidth=2;shape=mxgraph.networks.pc;" vertex="1" parent="1">
          <mxGeometry x="120" y="140" width="60" height="50" as="geometry" />
        </mxCell>
        <mxCell id="4JZfmhiXD-vPmhhkhMX5-9" style="edgeStyle=orthogonalEdgeStyle;rounded=0;orthogonalLoop=1;jettySize=auto;html=1;exitX=1;exitY=0.5;exitDx=0;exitDy=0;exitPerimeter=0;entryX=0;entryY=0.5;entryDx=0;entryDy=0;entryPerimeter=0;" edge="1" parent="1" source="4JZfmhiXD-vPmhhkhMX5-6" target="4JZfmhiXD-vPmhhkhMX5-1">
          <mxGeometry relative="1" as="geometry" />
        </mxCell>
        <mxCell id="4JZfmhiXD-vPmhhkhMX5-6" value="" style="fontColor=#0066CC;verticalAlign=top;verticalLabelPosition=bottom;labelPosition=center;align=center;html=1;outlineConnect=0;fillColor=#CCCCCC;strokeColor=#6881B3;gradientColor=none;gradientDirection=north;strokeWidth=2;shape=mxgraph.networks.pc;" vertex="1" parent="1">
          <mxGeometry x="120" y="70" width="60" height="50" as="geometry" />
        </mxCell>
        <mxCell id="4JZfmhiXD-vPmhhkhMX5-11" style="edgeStyle=orthogonalEdgeStyle;rounded=0;orthogonalLoop=1;jettySize=auto;html=1;exitX=1;exitY=0.5;exitDx=0;exitDy=0;exitPerimeter=0;" edge="1" parent="1" source="4JZfmhiXD-vPmhhkhMX5-7" target="4JZfmhiXD-vPmhhkhMX5-1">
          <mxGeometry relative="1" as="geometry" />
        </mxCell>
        <mxCell id="4JZfmhiXD-vPmhhkhMX5-7" value="" style="fontColor=#0066CC;verticalAlign=top;verticalLabelPosition=bottom;labelPosition=center;align=center;html=1;outlineConnect=0;fillColor=#CCCCCC;strokeColor=#6881B3;gradientColor=none;gradientDirection=north;strokeWidth=2;shape=mxgraph.networks.pc;" vertex="1" parent="1">
          <mxGeometry x="120" y="230" width="60" height="50" as="geometry" />
        </mxCell>
        <mxCell id="4JZfmhiXD-vPmhhkhMX5-14" style="edgeStyle=orthogonalEdgeStyle;rounded=0;orthogonalLoop=1;jettySize=auto;html=1;exitX=1;exitY=0.5;exitDx=0;exitDy=0;exitPerimeter=0;entryX=0;entryY=0.5;entryDx=0;entryDy=0;entryPerimeter=0;" edge="1" parent="1" source="4JZfmhiXD-vPmhhkhMX5-8" target="4JZfmhiXD-vPmhhkhMX5-1">
          <mxGeometry relative="1" as="geometry" />
        </mxCell>
        <mxCell id="4JZfmhiXD-vPmhhkhMX5-8" value="" style="fontColor=#0066CC;verticalAlign=top;verticalLabelPosition=bottom;labelPosition=center;align=center;html=1;outlineConnect=0;fillColor=#CCCCCC;strokeColor=#6881B3;gradientColor=none;gradientDirection=north;strokeWidth=2;shape=mxgraph.networks.pc;" vertex="1" parent="1">
          <mxGeometry x="120" y="300" width="60" height="50" as="geometry" />
        </mxCell>
        <mxCell id="4JZfmhiXD-vPmhhkhMX5-15" value="内外网环境自适应终端安全防御系统" style="text;html=1;strokeColor=none;fillColor=none;align=center;verticalAlign=middle;whiteSpace=wrap;rounded=0;" vertex="1" parent="1">
          <mxGeometry x="430" y="270" width="130" height="20" as="geometry" />
        </mxCell>
        <mxCell id="4JZfmhiXD-vPmhhkhMX5-17" value="国产操作系统客户端" style="text;html=1;strokeColor=none;fillColor=none;align=center;verticalAlign=middle;whiteSpace=wrap;rounded=0;" vertex="1" parent="1">
          <mxGeometry x="180" y="230" width="140" height="30" as="geometry" />
        </mxCell>
        <mxCell id="4JZfmhiXD-vPmhhkhMX5-18" value="国产操作系统客户端" style="text;html=1;strokeColor=none;fillColor=none;align=center;verticalAlign=middle;whiteSpace=wrap;rounded=0;" vertex="1" parent="1">
          <mxGeometry x="180" y="300" width="140" height="30" as="geometry" />
        </mxCell>
        <mxCell id="4JZfmhiXD-vPmhhkhMX5-21" value="&lt;font style=&quot;font-size: 12px;&quot;&gt;windows&lt;span style=&quot;line-height: 150%; font-family: 宋体;&quot;&gt;操作系统客户端&lt;/span&gt;&lt;/font&gt;" style="text;html=1;strokeColor=none;fillColor=none;align=center;verticalAlign=middle;whiteSpace=wrap;rounded=0;" vertex="1" parent="1">
          <mxGeometry x="180" y="70" width="140" height="30" as="geometry" />
        </mxCell>
        <mxCell id="4JZfmhiXD-vPmhhkhMX5-22" value="&lt;font style=&quot;font-size: 12px;&quot;&gt;windows&lt;span style=&quot;line-height: 150%; font-family: 宋体;&quot;&gt;操作系统客户端&lt;/span&gt;&lt;/font&gt;" style="text;html=1;strokeColor=none;fillColor=none;align=center;verticalAlign=middle;whiteSpace=wrap;rounded=0;" vertex="1" parent="1">
          <mxGeometry x="180" y="140" width="140" height="30" as="geometry" />
        </mxCell>
      </root>
    </mxGraphModel>
  </diagram>
  <diagram id="xYUlTZcTP6EAIsT1t__o" name="第 3 页">
    <mxGraphModel dx="934" dy="4447" grid="0" gridSize="10" guides="1" tooltips="1" connect="1" arrows="1" fold="1" page="1" pageScale="1" pageWidth="1200" pageHeight="1920" math="0" shadow="0">
      <root>
        <mxCell id="0" />
        <mxCell id="1" parent="0" />
        <mxCell id="wNCi6EHDWykvQI3mf3Ov-2" value="安装包水印检查" style="rounded=0;whiteSpace=wrap;html=1;fillColor=#d0cee2;strokeColor=#56517e;" vertex="1" parent="1">
          <mxGeometry x="890" y="-2478" width="110" height="180" as="geometry" />
        </mxCell>
        <mxCell id="wNCi6EHDWykvQI3mf3Ov-3" value="" style="rounded=0;whiteSpace=wrap;html=1;fillColor=#e1d5e7;strokeColor=#9673a6;" vertex="1" parent="1">
          <mxGeometry x="292" y="-2224" width="558" height="64" as="geometry" />
        </mxCell>
        <mxCell id="wNCi6EHDWykvQI3mf3Ov-5" value="操作系统" style="rounded=0;whiteSpace=wrap;html=1;fillColor=#f8cecc;strokeColor=#b85450;" vertex="1" parent="1">
          <mxGeometry x="285" y="-2004" width="560" height="30" as="geometry" />
        </mxCell>
        <mxCell id="wNCi6EHDWykvQI3mf3Ov-10" value="伪造DNS响应" style="rounded=1;whiteSpace=wrap;html=1;fillColor=#b0e3e6;strokeColor=#0e8088;" vertex="1" parent="1">
          <mxGeometry x="287" y="-2274" width="85" height="33" as="geometry" />
        </mxCell>
        <mxCell id="wNCi6EHDWykvQI3mf3Ov-11" value="DNS响应" style="rounded=1;whiteSpace=wrap;html=1;fillColor=#d5e8d4;strokeColor=#82b366;" vertex="1" parent="1">
          <mxGeometry x="419" y="-2283" width="170" height="33" as="geometry" />
        </mxCell>
        <mxCell id="wNCi6EHDWykvQI3mf3Ov-16" value="DNS请求" style="rounded=0;whiteSpace=wrap;html=1;" vertex="1" parent="1">
          <mxGeometry x="1030" y="-2115" width="123" height="40" as="geometry" />
        </mxCell>
        <mxCell id="wNCi6EHDWykvQI3mf3Ov-19" value="" style="rounded=0;whiteSpace=wrap;html=1;" vertex="1" parent="1">
          <mxGeometry x="278" y="-2478" width="550" height="71" as="geometry" />
        </mxCell>
        <mxCell id="wNCi6EHDWykvQI3mf3Ov-20" value="恶意域名名单" style="rounded=0;whiteSpace=wrap;html=1;" vertex="1" parent="1">
          <mxGeometry x="314" y="-2360" width="106" height="35" as="geometry" />
        </mxCell>
        <mxCell id="wNCi6EHDWykvQI3mf3Ov-21" value="安装包水印校验" style="rounded=0;whiteSpace=wrap;html=1;" vertex="1" parent="1">
          <mxGeometry x="538" y="-2355" width="106" height="35" as="geometry" />
        </mxCell>
        <mxCell id="qBh5xD8XtRAlpe825L68-1" value="DNS协议缺陷代偿" style="rounded=1;whiteSpace=wrap;html=1;" vertex="1" parent="1">
          <mxGeometry x="186" y="-2173" width="63" height="123" as="geometry" />
        </mxCell>
        <mxCell id="qBh5xD8XtRAlpe825L68-2" value="智能内网网识别" style="rounded=1;whiteSpace=wrap;html=1;" vertex="1" parent="1">
          <mxGeometry x="186" y="-2304" width="63" height="123" as="geometry" />
        </mxCell>
        <mxCell id="qBh5xD8XtRAlpe825L68-3" value="恶意域名诱捕" style="rounded=1;whiteSpace=wrap;html=1;" vertex="1" parent="1">
          <mxGeometry x="186" y="-2443" width="63" height="123" as="geometry" />
        </mxCell>
        <mxCell id="qBh5xD8XtRAlpe825L68-4" value="策略沙箱" style="rounded=1;whiteSpace=wrap;html=1;" vertex="1" parent="1">
          <mxGeometry x="193" y="-2591" width="63" height="123" as="geometry" />
        </mxCell>
        <mxCell id="qBh5xD8XtRAlpe825L68-6" value="数据包" style="rounded=1;whiteSpace=wrap;html=1;" vertex="1" parent="1">
          <mxGeometry x="448" y="-2078" width="73" height="32" as="geometry" />
        </mxCell>
        <mxCell id="qBh5xD8XtRAlpe825L68-7" value="" style="shape=flexArrow;endArrow=classic;html=1;rounded=0;" edge="1" parent="1">
          <mxGeometry width="50" height="50" relative="1" as="geometry">
            <mxPoint x="549" y="-2032" as="sourcePoint" />
            <mxPoint x="549" y="-2132" as="targetPoint" />
          </mxGeometry>
        </mxCell>
        <mxCell id="qBh5xD8XtRAlpe825L68-8" value="流量分析" style="rounded=1;whiteSpace=wrap;html=1;" vertex="1" parent="1">
          <mxGeometry x="339" y="-2214.5" width="88" height="45" as="geometry" />
        </mxCell>
        <mxCell id="qBh5xD8XtRAlpe825L68-9" value="行为识别" style="rounded=1;whiteSpace=wrap;html=1;" vertex="1" parent="1">
          <mxGeometry x="450" y="-2214.5" width="88" height="45" as="geometry" />
        </mxCell>
        <mxCell id="qBh5xD8XtRAlpe825L68-10" value="深度学习" style="rounded=1;whiteSpace=wrap;html=1;" vertex="1" parent="1">
          <mxGeometry x="570" y="-2218" width="88" height="45" as="geometry" />
        </mxCell>
      </root>
    </mxGraphModel>
  </diagram>
</mxfile>
